That Obscure Object of Desire. Thirty years after Buñuel’s last work, his compatriot Guerín, 60 years his junior, also came up with a film treating the phenomenon 'fantasma femenino' – the phantom of the beautiful woman which weighs heavily on the imagination of fiery southerners. In Guerín’s story, headstrong Iberian passion is cultivated with a touch of the French esprit. A young painter arrives in Strasbourg in search of a woman who bewitched him here six years earlier. Caught in a web of fixations and adrift in the labyrinth of the anonymous city, the artist sits in the drama school café, watching life go by. Gazing at dozens of beautiful young women filing past whose faces might appear on the UNESCO list, like Strasbourg’s historical centre, the young man misguidedly tries to catch a glimpse of something which doesn’t exist anymore. Watching, waiting, sensing… The viewer is immersed in the ambient sounds of a city in which the path to illusion is free of unnecessary words. A film of gentle humour and irony, with an unspoken tribute to Bresson and Rohmer hovering above the summer city… –kviff.com

_________________________________


General
Complete name : En.La.Ciudad.De.Sylvia.2007.x264-HANDJOB.mkv
Format : Matroska
Format version : Version 2
File size : 1.63 GiB
Duration : 1h 21mn
Overall bit rate : 2 856 Kbps
Encoded date : UTC 2013-05-23 22:15:19
Writing application : mkvmerge v5.1.0 ('And so it goes') built on Feb 1 2012 11:31:23
Writing library : libebml v1.2.2 + libmatroska v1.3.0

Video
ID : 1
Format : AVC
Format/Info : Advanced Video Codec
Format profile : High@L4.0
Format settings, CABAC : Yes
Format settings, ReFrames : 16 frames
Codec ID : V_MPEG4/ISO/AVC
Duration : 1h 21mn
Bit rate : 2 416 Kbps
Width : 712 pixels
Height : 572 pixels
Display aspect ratio : 16:9
Original display aspect ratio : 16:9
Frame rate : 25.000 fps
Color space : YUV
Chroma subsampling : 4:2:0
Bit depth : 8 bits
Scan type : Progressive
Bits/(Pixel*Frame) : 0.237
Stream size : 1.38 GiB (85%)
Writing library : x264 core 120
Encoding settings : cabac=1 / ref=16 / deblock=1:-3:-3 / analyse=0x3:0x133 / me=umh / subme=9 / psy=1 / psy_rd=1.00:0.00 / mixed_ref=1 / me_range=32 / chroma_me=1 / trellis=2 / 8x8dct=1 / cqm=0 / deadzone=21,11 / fast_pskip=0 / chroma_qp_offset=-2 / threads=3 / sliced_threads=0 / nr=0 / decimate=1 / interlaced=0 / bluray_compat=0 / constrained_intra=0 / bframes=6 / b_pyramid=2 / b_adapt=2 / b_bias=0 / direct=3 / weightb=1 / open_gop=0 / weightp=2 / keyint=250 / keyint_min=25 / scenecut=40 / intra_refresh=0 / rc_lookahead=120 / rc=crf / mbtree=1 / crf=20.0 / qcomp=0.60 / qpmin=3 / qpmax=69 / qpstep=4 / ip_ratio=1.40 / aq=1:1.00
Language : French
Default : Yes
Forced : No
Color primaries : BT.601-6 525, BT.1358 525, BT.1700 NTSC, SMPTE 170M
Transfer characteristics : BT.709-5, BT.1361
Matrix coefficients : BT.601-6 525, BT.1358 525, BT.1700 NTSC, SMPTE 170M

Audio
ID : 2
Format : AC-3
Format/Info : Audio Coding 3
Mode extension : CM (complete main)
Codec ID : A_AC3
Duration : 1h 21mn
Bit rate mode : Constant
Bit rate : 384 Kbps
Channel(s) : 6 channels
Channel positions : Front: L C R, Side: L R, LFE
Sampling rate : 48.0 KHz
Bit depth : 16 bits
Compression mode : Lossy
Stream size : 225 MiB (13%)
Language : French
Default : Yes
Forced : No